<svg xmlns="http://www.w3.org/2000/svg" xmlns:xlink="http://www.w3.org/1999/xlink" width="512" height="512" viewBox="0 0 512 512"><defs><clipPath id="a"><rect width="362.232" height="458.826" fill="none"/></clipPath><clipPath id="c"><rect width="512" height="512"/></clipPath></defs><g id="b" clip-path="url(#c)"><g transform="translate(75 27)" clip-path="url(#a)"><path d="M0,440.751V286.8c2.719-3.951,22.34-36.225,171.042-280.82a12.451,12.451,0,0,1,21.279,0c148.7,244.594,167.4,276.868,169.624,280.82h.287V440.751s-92.123-29.865-182.681-29.865S0,440.751,0,440.751Z" transform="translate(0 0)" fill="#5e6072"/><path d="M24,450.359V291.537L163.853,11.153l.118-.194L60.224,300.592V457.379A173.747,173.747,0,0,1,24,450.359Z" transform="translate(3.167 1.446)" fill="#ff8f00"/><path d="M0,439.256V285.307l.058-.085h0l.02-.033c2.985-4.408,23.247-37.732,166.8-273.857L27.168,291.587V450.31C10.295,445.151,0,439.256,0,439.256Z" transform="translate(0 1.397)" fill="#fec14c"/></g><g transform="translate(139.456 238)"><g transform="translate(42.544 0)"><path d="M55.222,179.141a12.229,12.229,0,0,0-8.985,3.692,12.087,12.087,0,0,0-3.693,8.863v52.933a12.608,12.608,0,0,0,12.678,12.68,12.04,12.04,0,0,0,8.927-3.693,12.341,12.341,0,0,0,3.631-8.988V191.7a12.607,12.607,0,0,0-12.558-12.555Z" transform="translate(-42.544 -112.791)" fill="#aac148"/><path d="M207.587,18.833l8.74-16.123a1.621,1.621,0,0,0-.614-2.462,1.7,1.7,0,0,0-2.462.737l-8.862,16.252a61.743,61.743,0,0,0-49.488,0L146.039.985a1.707,1.707,0,0,0-2.462-.737,1.619,1.619,0,0,0-.614,2.462L151.7,18.833a53.974,53.974,0,0,0-21.174,18.9,47.729,47.729,0,0,0-7.879,26.53H236.516a47.742,47.742,0,0,0-7.879-26.53A54.2,54.2,0,0,0,207.587,18.833ZM157.055,42.285a4.615,4.615,0,0,1-3.386,1.419,4.405,4.405,0,0,1-3.323-1.419,4.908,4.908,0,0,1,0-6.768,4.421,4.421,0,0,1,3.323-1.414,4.784,4.784,0,0,1,3.386,8.183Zm51.885,0a4.415,4.415,0,0,1-3.323,1.419,4.8,4.8,0,0,1,0-9.6,4.424,4.424,0,0,1,3.323,1.414,4.908,4.908,0,0,1,0,6.768Z" transform="translate(-92.981 0)" fill="#aac148"/><path d="M123.971,267.435a13.443,13.443,0,0,0,13.539,13.539h9.11l.125,27.947a12.235,12.235,0,0,0,3.692,8.988A12.089,12.089,0,0,0,159.3,321.6a12.608,12.608,0,0,0,12.678-12.68V280.977h16.987v27.944a12.678,12.678,0,1,0,25.356,0V280.977h9.233a13.444,13.444,0,0,0,13.417-13.539V185.45h-113Z" transform="translate(-93.812 -116.763)" fill="#aac148"/><path d="M454.932,179.141a12.2,12.2,0,0,0-8.863,3.631,12.038,12.038,0,0,0-3.692,8.924v52.933a12.226,12.226,0,0,0,3.692,8.988,12.09,12.09,0,0,0,8.863,3.693,12.608,12.608,0,0,0,12.678-12.68V191.7a12.036,12.036,0,0,0-3.692-8.924A12.347,12.347,0,0,0,454.932,179.141Z" transform="translate(-294.286 -112.791)" fill="#aac148"/></g></g></g></svg>