<svg xmlns="http://www.w3.org/2000/svg" xmlns:xlink="http://www.w3.org/1999/xlink" width="512" height="512" viewBox="0 0 512 512"><defs><clipPath id="b"><rect width="512" height="512"/></clipPath></defs><g id="a" clip-path="url(#b)"><path d="M0,389.365v-136c2.4-3.49,19.735-32,151.1-248.08a11,11,0,0,1,18.8,0c131.366,216.078,147.883,244.589,149.848,248.08H320v136s-81.383-26.383-161.383-26.383S0,389.365,0,389.365Z" transform="translate(96 53.175)" fill="#5e6072"/><path d="M24,399.131V258.826L147.548,11.13l.1-.172L56,266.825V405.332A153.49,153.49,0,0,1,24,399.131Z" transform="translate(96 53.175)" fill="#ff8f00"/><path d="M0,389.365v-136l.051-.075h0l.018-.029c2.637-3.894,20.537-33.333,147.354-241.929L24,258.913V399.131A128.272,128.272,0,0,1,0,389.365Z" transform="translate(96 53.087)" fill="#fec14c"/></g></svg>