<svg xmlns="http://www.w3.org/2000/svg" xmlns:xlink="http://www.w3.org/1999/xlink" width="512" height="512" viewBox="0 0 512 512"><defs><clipPath id="a"><rect width="362.232" height="458.826" fill="none"/></clipPath><clipPath id="c"><rect width="512" height="512"/></clipPath></defs><g id="b" clip-path="url(#c)"><g transform="translate(75 27)" clip-path="url(#a)"><path d="M0,440.751V286.8c2.719-3.951,22.34-36.225,171.042-280.82a12.451,12.451,0,0,1,21.279,0c148.7,244.594,167.4,276.868,169.624,280.82h.287V440.751s-92.123-29.865-182.681-29.865S0,440.751,0,440.751Z" transform="translate(0 0)" fill="#5e6072"/><path d="M24,450.359V291.537L163.853,11.153l.118-.194L60.224,300.592V457.379A173.747,173.747,0,0,1,24,450.359Z" transform="translate(3.167 1.446)" fill="#ff8f00"/><path d="M0,439.256V285.307l.058-.085h0l.02-.033c2.985-4.408,23.247-37.732,166.8-273.857L27.168,291.587V450.31C10.295,445.151,0,439.256,0,439.256Z" transform="translate(0 1.397)" fill="#fec14c"/></g></g></svg>